<?xml version="1.0" encoding="UTF-8" standalone="no"?>
<svg
   xmlns:dc="http://purl.org/dc/elements/1.1/"
   xmlns:cc="http://creativecommons.org/ns#"
   xmlns:rdf="http://www.w3.org/1999/02/22-rdf-syntax-ns#"
   xmlns:svg="http://www.w3.org/2000/svg"
   xmlns="http://www.w3.org/2000/svg"
   version="1.1"
   id="svg2"
   width="48"
   viewBox="0 0 48 48"
   height="48">
  <metadata
     id="metadata12">
    <rdf:RDF>
      <cc:Work
         rdf:about="">
        <dc:format>image/svg+xml</dc:format>
        <dc:type
           rdf:resource="http://purl.org/dc/dcmitype/StillImage" />
        <dc:title></dc:title>
      </cc:Work>
    </rdf:RDF>
  </metadata>
  <defs
     id="defs10" />
  <g
     transform="scale(0.09375,0.09375)"
     id="g3342">
    <rect
       height="512"
       rx="64"
       ry="64"
       width="512"
       id="rect4"
       x="0"
       y="0"
       style="fill:#6b6b6b" />
    <path
       d="m 84.461206,146.09228 c -2.981521,2.82054 -4.842568,6.82227 -4.842568,11.2672 l 0,184.26409 c 0,8.54833 6.747431,15.47812 15.420085,15.47812 l 322.736087,0 c 8.51628,0 15.42009,-6.91701 15.42009,-15.47812 l 0,-184.26409 c 0,-4.45405 -1.83183,-8.46868 -4.81336,-11.2926 L 256.40677,295.61016 84.461206,146.09228 Z m 10.585577,-19.58381 c -17.010937,0 -30.801026,13.75126 -30.801026,30.65446 l 0,184.65719 c 0,16.92999 13.678224,30.65445 30.801026,30.65445 l 322.719967,0 c 17.01094,0 30.80103,-13.75126 30.80103,-30.65445 l 0,-184.65719 c 0,-16.92999 -13.67822,-30.65446 -30.80103,-30.65446 l -322.719967,0 z M 256.40677,275.6256 410.13558,141.88135 l -307.45762,0 153.72881,133.74425 z"
       id="path6"
       style="fill:#ffffff;fill-rule:evenodd;stroke:#ffffff;stroke-width:15.37288094" />
  </g>
</svg>
