<?xml version="1.0" encoding="UTF-8" standalone="no"?>
<svg
   xmlns:dc="http://purl.org/dc/elements/1.1/"
   xmlns:cc="http://creativecommons.org/ns#"
   xmlns:rdf="http://www.w3.org/1999/02/22-rdf-syntax-ns#"
   xmlns:svg="http://www.w3.org/2000/svg"
   xmlns="http://www.w3.org/2000/svg"
   version="1.1"
   id="svg2"
   width="48"
   viewBox="0 0 48 48"
   height="48">
  <metadata
     id="metadata14">
    <rdf:RDF>
      <cc:Work
         rdf:about="">
        <dc:format>image/svg+xml</dc:format>
        <dc:type
           rdf:resource="http://purl.org/dc/dcmitype/StillImage" />
        <dc:title></dc:title>
      </cc:Work>
    </rdf:RDF>
  </metadata>
  <defs
     id="defs12" />
  <g
     transform="scale(0.09375,0.09375)"
     id="g3342">
    <rect
       style="fill:#d0422a"
       y="0"
       x="0"
       height="512"
       rx="64"
       ry="64"
       width="512"
       id="rect4" />
    <g
       style="fill:#ffffff"
       id="g6">
      <path
         d="m 266.65953,284.36341 -18.75913,-14.5685 c -5.71201,-4.73875 -13.52845,-10.99281 -13.52845,-22.4396 0,-11.49538 7.81644,-18.80468 14.59432,-25.57042 21.85352,-17.20132 43.68426,-35.50343 43.68426,-74.0815 0,-39.66673 -24.95853,-60.530283 -36.92156,-70.434438 l 32.25418,0 33.85146,-21.268956 -102.56106,0 c -28.1425,0 -68.69897,6.659455 -98.3917,31.173111 -22.384937,19.304223 -33.297272,45.928373 -33.297272,69.895423 0,40.68098 31.241432,81.92223 86.398302,81.92223 5.21399,0 10.9093,-0.51169 16.64408,-1.04463 -2.57663,6.26773 -5.18211,11.48627 -5.18211,20.34581 0,16.15517 8.30534,26.06692 15.62376,35.44724 -23.43412,1.61552 -67.18974,4.20733 -99.44846,24.03386 -30.714575,18.26871 -40.067571,44.85491 -40.067571,63.62315 0,38.62666 36.411396,74.60381 111.901921,74.60381 89.52912,0 136.91814,-49.53292 136.91814,-98.5739 0.0152,-36.03332 -20.80131,-53.76454 -43.71311,-73.06269 z m -68.18729,-59.98975 c -44.78658,0 -65.07772,-57.89595 -65.07772,-92.83304 0,-13.60284 2.57359,-27.64296 11.43465,-38.611473 8.35088,-10.444685 22.89206,-17.224089 36.46757,-17.224089 43.17562,0 65.56815,58.418262 65.56815,95.988162 0,9.40006 -1.03552,26.05629 -13.00614,38.10283 -8.37518,8.34937 -22.38342,14.57761 -35.38651,14.57761 z m 0.50865,209.76827 c -55.69133,0 -91.6047,-26.64238 -91.6047,-63.68388 0,-37.03392 33.29727,-49.56177 44.75924,-53.70837 21.84745,-7.35486 49.96717,-8.37974 54.65885,-8.37974 5.20488,0 7.80884,0 11.95088,0.52383 39.59537,28.17287 56.78301,42.22058 56.78301,68.89484 0,32.29668 -26.5619,56.35332 -76.54728,56.35332 z m 199.13682,-132.03971 0,-52.47547 52.32971,0 0,-26.04718 -52.32971,0 0,-52.15966 -25.76325,0 0,52.15966 -52.07159,0 0,26.04718 52.07159,0 0,52.47547"
         id="path8" />
    </g>
  </g>
</svg>
