<?xml version="1.0" encoding="UTF-8" standalone="no"?>
<svg
   xmlns:dc="http://purl.org/dc/elements/1.1/"
   xmlns:cc="http://creativecommons.org/ns#"
   xmlns:rdf="http://www.w3.org/1999/02/22-rdf-syntax-ns#"
   xmlns:svg="http://www.w3.org/2000/svg"
   xmlns="http://www.w3.org/2000/svg"
   version="1.1"
   id="svg2"
   width="48"
   viewBox="0 0 48 48"
   height="48">
  <metadata
     id="metadata14">
    <rdf:RDF>
      <cc:Work
         rdf:about="">
        <dc:format>image/svg+xml</dc:format>
        <dc:type
           rdf:resource="http://purl.org/dc/dcmitype/StillImage" />
        <dc:title></dc:title>
      </cc:Work>
    </rdf:RDF>
  </metadata>
  <defs
     id="defs12" />
  <g
     transform="scale(0.09375,0.09375)"
     id="g3342">
    <rect
       style="fill:#0083be"
       y="0"
       x="0"
       height="512"
       rx="64"
       ry="64"
       width="512"
       id="rect4" />
    <g
       style="fill:#ffffff"
       id="g6">
      <path
         d="m 61.053165,178.66809 85.760135,0 0,257.96253 -85.760135,0 z M 104.5128,54.280632 c -29.341857,0 -48.512575,19.29036 -48.512575,44.573705 0,24.751953 18.588045,44.573703 47.376755,44.573703 l 0.5547,0 c 29.90278,0 48.51568,-19.82175 48.51568,-44.573703 C 151.89266,73.570992 133.83601,54.280632 104.5128,54.280632 Z M 357.27944,172.60209 c -45.49044,0 -65.8669,25.01765 -77.27642,42.58951 l 0,-36.5235 -85.73838,0 c 1.13737,24.19725 0,257.96254 0,257.96254 l 85.73683,0 0,-144.06473 c 0,-7.71148 0.5547,-15.41986 2.82791,-20.93117 6.18721,-15.39966 20.30498,-31.35246 43.99258,-31.35246 31.01219,0 43.43633,23.66429 43.43633,58.32789 l 0,138.02047 85.74149,0 0,-147.93057 c 0,-79.23731 -42.30516,-116.09798 -98.72034,-116.09798 z"
         id="path8" />
    </g>
  </g>
</svg>
