<?xml version="1.0" encoding="UTF-8" standalone="no"?>
<svg
   version="1.1"
   viewBox="0 0 512 512"
   id="svg1"
   sodipodi:docname="webcam.svg"
   width="512"
   height="512"
   inkscape:version="1.3.2 (091e20ef0f, 2023-11-25, custom)"
   xmlns:inkscape="http://www.inkscape.org/namespaces/inkscape"
   xmlns:sodipodi="http://sodipodi.sourceforge.net/DTD/sodipodi-0.dtd"
   xmlns="http://www.w3.org/2000/svg"
   xmlns:svg="http://www.w3.org/2000/svg"
   xmlns:rdf="http://www.w3.org/1999/02/22-rdf-syntax-ns#"
   xmlns:cc="http://creativecommons.org/ns#"
   xmlns:dc="http://purl.org/dc/elements/1.1/">
  <defs
     id="defs1" />
  <sodipodi:namedview
     id="namedview1"
     pagecolor="#000000"
     bordercolor="#ffffff"
     borderopacity="1"
     inkscape:showpageshadow="0"
     inkscape:pageopacity="1"
     inkscape:pagecheckerboard="true"
     inkscape:deskcolor="#000000"
     showgrid="false"
     inkscape:zoom="0.9765625"
     inkscape:cx="256"
     inkscape:cy="256"
     inkscape:window-width="1358"
     inkscape:window-height="704"
     inkscape:window-x="0"
     inkscape:window-y="0"
     inkscape:window-maximized="1"
     inkscape:current-layer="svg1" />
  <metadata
     id="metadata1">
    <rdf:RDF>
      <cc:Work
         rdf:about="">
        <dc:format>image/svg+xml</dc:format>
        <dc:type
           rdf:resource="http://purl.org/dc/dcmitype/StillImage" />
      </cc:Work>
    </rdf:RDF>
  </metadata>
  <g
     transform="matrix(5.3333333,0,0,5.3333556,-85.335999,-5015.2743)"
     fill="#7f7f7f"
     id="g1"
     style="fill:#ffffff;fill-opacity:1">
    <path
       d="m 63.973,940.36 c -22.927,0 -41.514,18.508 -41.514,41.339 0,22.831 18.586,41.339 41.514,41.339 22.928,0 41.514,-18.508 41.514,-41.339 0,-22.831 -18.586,-41.339 -41.514,-41.339 z m 15.568,17.225 c 13.374,0 24.216,10.796 24.216,24.114 0,13.318 -10.842,24.114 -24.216,24.114 -13.374,0 -24.216,-10.796 -24.216,-24.114 0,-13.318 10.842,-24.114 24.216,-24.114 z m 1.7297,3.4449 c -11.464,0 -20.757,9.254 -20.757,20.669 0,11.415 9.2931,20.669 20.757,20.669 11.4639,0 20.757,-9.254 20.757,-20.669 0,-11.415 -9.2931,-20.669 -20.757,-20.669 z m 0,6.8898 c 7.6424,0 13.838,6.1694 13.838,13.78 0,7.6103 -6.1954,13.78 -13.838,13.78 -7.6426,0 -13.838,-6.1694 -13.838,-13.78 0,-7.6103 6.1954,-13.78 13.838,-13.78 z m 3.7838,53.342 c -6.2893,3.3308 -13.461,5.2212 -21.081,5.2212 -7.5689,0 -14.687,-1.8784 -20.946,-5.1673 l -27.027,15.044 48,-6.5399 48,6.2708 -26.946,-14.829 z"
       fill="#7f7f7f"
       id="path1"
       style="fill:#ffffff;fill-opacity:1" />
  </g>
</svg>
