<?xml version="1.0" encoding="UTF-8" standalone="no"?>
<svg
   xmlns:dc="http://purl.org/dc/elements/1.1/"
   xmlns:cc="http://creativecommons.org/ns#"
   xmlns:rdf="http://www.w3.org/1999/02/22-rdf-syntax-ns#"
   xmlns:svg="http://www.w3.org/2000/svg"
   xmlns="http://www.w3.org/2000/svg"
   xmlns:sodipodi="http://sodipodi.sourceforge.net/DTD/sodipodi-0.dtd"
   xmlns:inkscape="http://www.inkscape.org/namespaces/inkscape"
   height="48"
   viewBox="0 0 48 48"
   width="48"
   id="svg2"
   version="1.1"
   inkscape:version="0.91 r13725"
   sodipodi:docname="Pinterest.svg">
  <metadata
     id="metadata12">
    <rdf:RDF>
      <cc:Work
         rdf:about="">
        <dc:format>image/svg+xml</dc:format>
        <dc:type
           rdf:resource="http://purl.org/dc/dcmitype/StillImage" />
        <dc:title></dc:title>
      </cc:Work>
    </rdf:RDF>
  </metadata>
  <defs
     id="defs10" />
  <sodipodi:namedview
     pagecolor="#ffffff"
     bordercolor="#666666"
     borderopacity="1"
     objecttolerance="10"
     gridtolerance="10"
     guidetolerance="10"
     inkscape:pageopacity="0"
     inkscape:pageshadow="2"
     inkscape:window-width="878"
     inkscape:window-height="480"
     id="namedview8"
     showgrid="false"
     fit-margin-top="0"
     fit-margin-left="0"
     fit-margin-right="0"
     fit-margin-bottom="0"
     inkscape:zoom="0.4609375"
     inkscape:cx="256"
     inkscape:cy="256"
     inkscape:window-x="34"
     inkscape:window-y="0"
     inkscape:window-maximized="0"
     inkscape:current-layer="svg2" />
  <g
     id="g3340"
     transform="scale(0.09375,0.09375)">
    <rect
       id="rect4"
       width="512"
       ry="64"
       rx="64"
       height="512"
       x="0"
       y="0"
       style="fill:#ca2127" />
    <path
       id="path6"
       d="m 265.38115,56 c -109.161,0 -164.2023,78.2611 -164.2023,143.53806 0,39.51227 14.9518,74.66615 47.0384,87.75208 5.2638,2.17384 9.9811,0.0803 11.5108,-5.74201 1.0595,-4.01953 3.5694,-14.18825 4.6932,-18.44084 1.5297,-5.75942 0.9309,-7.76718 -3.3123,-12.80333 -9.2513,-10.90672 -15.1767,-25.03069 -15.1767,-45.0547 0,-58.05493 43.4474,-110.03969 113.1229,-110.03969 61.7036,0 95.6024,37.70275 95.6024,88.03604 0,66.25605 -29.3236,122.17062 -72.838,122.17062 -24.0381,0 -42.0182,-19.86865 -36.2668,-44.25509 6.9046,-29.10782 20.2838,-60.51273 20.2838,-81.53995 0,-18.7998 -10.1084,-34.48417 -30.9856,-34.48417 -24.57,0 -44.31,25.42046 -44.31,59.46664 0,21.68488 7.3292,36.36068 7.3292,36.36068 0,0 -25.1485,106.53849 -29.5551,125.19767 -8.7746,37.16163 -1.3234,82.70253 -0.6846,87.28998 0.3698,2.74041 3.879,3.40208 5.4675,1.33806 2.2529,-2.95739 31.5374,-39.085 41.4678,-75.19521 2.8234,-10.2156 16.1625,-63.14866 16.1625,-63.14866 7.9909,15.23969 31.3178,28.62699 56.1275,28.62699 73.8518,0 123.9654,-67.32625 123.9654,-157.44773 C 410.83415,119.47011 353.10245,56 265.38115,56 Z"
       inkscape:connector-curvature="0"
       style="fill:#ffffff" />
  </g>
</svg>
