<?xml version="1.0" encoding="UTF-8" standalone="no"?>
<svg
   xmlns:dc="http://purl.org/dc/elements/1.1/"
   xmlns:cc="http://creativecommons.org/ns#"
   xmlns:rdf="http://www.w3.org/1999/02/22-rdf-syntax-ns#"
   xmlns:svg="http://www.w3.org/2000/svg"
   xmlns="http://www.w3.org/2000/svg"
   xmlns:sodipodi="http://sodipodi.sourceforge.net/DTD/sodipodi-0.dtd"
   xmlns:inkscape="http://www.inkscape.org/namespaces/inkscape"
   height="48"
   viewBox="0 0 48 48"
   width="48"
   id="svg2"
   version="1.1"
   inkscape:version="0.91 r13725"
   sodipodi:docname="Tumblr.svg">
  <metadata
     id="metadata12">
    <rdf:RDF>
      <cc:Work
         rdf:about="">
        <dc:format>image/svg+xml</dc:format>
        <dc:type
           rdf:resource="http://purl.org/dc/dcmitype/StillImage" />
        <dc:title></dc:title>
      </cc:Work>
    </rdf:RDF>
  </metadata>
  <defs
     id="defs10" />
  <sodipodi:namedview
     pagecolor="#ffffff"
     bordercolor="#666666"
     borderopacity="1"
     objecttolerance="10"
     gridtolerance="10"
     guidetolerance="10"
     inkscape:pageopacity="0"
     inkscape:pageshadow="2"
     inkscape:window-width="936"
     inkscape:window-height="480"
     id="namedview8"
     showgrid="false"
     fit-margin-top="0"
     fit-margin-left="0"
     fit-margin-right="0"
     fit-margin-bottom="0"
     inkscape:zoom="0.4609375"
     inkscape:cx="256"
     inkscape:cy="256"
     inkscape:window-x="34"
     inkscape:window-y="0"
     inkscape:window-maximized="0"
     inkscape:current-layer="svg2" />
  <g
     id="g3340"
     transform="scale(0.09375,0.09375)">
    <rect
       id="rect4"
       width="512"
       ry="64"
       rx="64"
       height="512"
       x="0"
       y="0"
       style="fill:#44556b" />
    <path
       id="path6"
       d="m 351.70748,375.5075 c -7.43475,3.54637 -21.6587,6.63125 -32.26486,6.89908 -32.02726,0.8502 -38.23822,-22.49929 -38.49919,-39.42354 l 0,-124.52693 80.32636,0 0,-60.56308 -80.04891,0 0,-101.893037 -58.57837,0 c -0.96831,0 -2.6536,0.836461 -2.88984,2.980494 -3.42551,31.185299 -18.01619,85.930233 -78.7015,107.811443 l 0,51.66418 40.48663,0 0,130.68844 c 0,44.75685 33.00931,108.32926 120.14547,106.8294 29.40387,-0.50408 62.05744,-12.81475 69.26557,-23.44014 L 351.70748,375.5075"
       inkscape:connector-curvature="0"
       style="fill:#ffffff" />
  </g>
</svg>
