<?xml version="1.0" encoding="UTF-8" standalone="no"?>
<svg
   xmlns:dc="http://purl.org/dc/elements/1.1/"
   xmlns:cc="http://creativecommons.org/ns#"
   xmlns:rdf="http://www.w3.org/1999/02/22-rdf-syntax-ns#"
   xmlns:svg="http://www.w3.org/2000/svg"
   xmlns="http://www.w3.org/2000/svg"
   version="1.1"
   id="svg2"
   width="48"
   viewBox="0 0 48 48"
   height="48">
  <metadata
     id="metadata12">
    <rdf:RDF>
      <cc:Work
         rdf:about="">
        <dc:format>image/svg+xml</dc:format>
        <dc:type
           rdf:resource="http://purl.org/dc/dcmitype/StillImage" />
        <dc:title></dc:title>
      </cc:Work>
    </rdf:RDF>
  </metadata>
  <defs
     id="defs10" />
  <g
     transform="scale(0.09375,0.09375)"
     id="g3340">
    <rect
       style="fill:#00abf1"
       y="0"
       x="0"
       height="512"
       rx="64"
       ry="64"
       width="512"
       id="rect4" />
    <path
       style="fill:#ffffff"
       d="m 456,131.94143 c -14.71678,6.53071 -30.52722,10.93794 -47.12775,12.92382 16.9353,-10.15635 29.9499,-26.24339 36.08059,-45.397195 -15.85583,9.404555 -33.42376,16.226045 -52.12081,19.908435 -14.96076,-15.95228 -36.2962,-25.9143 -59.8927,-25.9143 -45.32485,0 -82.07212,36.74727 -82.07212,82.06645 0,6.42999 0.72768,12.68977 2.12915,18.70414 -68.20785,-3.43131 -128.67078,-36.09477 -169.147247,-85.75309 -7.065474,12.12095 -11.110993,26.2136 -11.110993,41.26231 0,28.47183 14.482732,53.58611 36.50471,68.30289 -13.445818,-0.42838 -26.097286,-4.11644 -37.16998,-10.26132 -0.0043,0.3376 -0.0043,0.68371 -0.0043,1.02982 0,39.75872 28.29027,72.92431 65.82764,80.47633 -6.88675,1.86531 -14.13946,2.87527 -21.61488,2.87527 -5.2952,0 -10.43153,-0.5291 -15.43737,-1.47665 10.44005,32.59679 40.75024,56.32662 76.65351,56.98906 -28.07891,22.01488 -63.46585,35.13587 -101.923824,35.13587 -6.617232,0 -13.149356,-0.39008 -19.573674,-1.15748 36.325982,23.29436 79.460698,36.88203 125.802598,36.88203 150.94383,0 233.49115,-125.04797 233.49115,-233.49115 0,-3.56607 -0.0823,-7.10235 -0.23405,-10.62445 C 431.08147,162.8488 445.0039,148.40153 456,131.94143 Z"
       id="path6" />
  </g>
</svg>
